<svg width="200" height="200" viewBox="0 0 200 200" fill="none" xmlns="http://www.w3.org/2000/svg">
<path d="M87.5822 39.2237C87.7008 35.2376 90.876 32 94.8916 32H98.9999C100.104 32 101 32.8955 101 34.0001L100.997 74.8128C100.997 75.9173 100.099 76.8039 98.9979 76.8957C86.9768 77.8992 77.5343 87.8692 77.5343 100.035C77.5343 112.193 86.9768 122.176 98.9979 123.181C100.099 123.273 100.997 124.16 100.997 125.264L101 166C101 167.104 100.104 168 98.9999 168H94.8916C90.884 168 87.7135 164.838 87.5829 160.865C87.5774 160.696 87.6002 160.527 87.6425 160.364L91.4633 145.593C91.7424 144.514 91.0844 143.418 90.0125 143.113C86.1675 142.017 82.5692 140.53 79.1722 138.698C78.2429 138.198 77.0765 138.463 76.4888 139.34L67.8279 152.263C67.7546 152.372 67.6713 152.475 67.5756 152.565C66.1902 153.874 64.3843 154.596 62.4705 154.596C60.4906 154.596 58.6291 153.827 57.2263 152.427L48.5846 143.792C47.1848 142.393 46.4124 140.52 46.4124 138.538C46.4124 136.66 47.1032 134.88 48.3689 133.508C48.5087 133.357 48.6779 133.236 48.8612 133.142L62.737 125.997C63.7687 125.465 64.1301 124.172 63.5673 123.157C61.6569 119.713 60.1104 116.028 58.9799 112.165C58.6878 111.167 57.7046 110.524 56.6791 110.697L40.567 113.418C40.457 113.436 40.345 113.446 40.2334 113.444C36.2156 113.357 33 110.174 33 106.136V93.9325C33 89.9263 36.1833 86.6836 40.1727 86.5638C40.3245 86.5592 40.4763 86.5776 40.6242 86.6118L56.5896 90.3066C57.648 90.5515 58.7047 89.9053 59.0125 88.8634C60.1512 85.0089 61.7069 81.3464 63.6259 77.912C64.1714 76.9356 63.8601 75.6906 62.8946 75.1259L48.8118 66.8897C48.6649 66.8038 48.5285 66.7004 48.4121 66.5762C47.1229 65.1996 46.4212 63.4117 46.4212 61.5181C46.4212 59.5656 47.2114 57.6546 48.5965 56.273L57.2322 47.6436C59.9934 44.8923 64.7768 44.843 67.5978 47.5069C67.6945 47.5982 67.7783 47.7024 67.8518 47.8132L75.892 59.9447C76.4774 60.828 77.6484 61.0978 78.5812 60.5951C81.9883 58.7588 85.5978 57.2675 89.4556 56.1743C90.5112 55.8752 91.1699 54.8089 90.92 53.7406L87.6313 39.6797C87.5964 39.5304 87.5776 39.377 87.5822 39.2237Z" fill="#B42D2D"/>
<path d="M125.017 95.8789C121.208 95.8789 117.824 95.0586 114.865 93.418C111.936 91.7773 109.636 89.5947 107.966 86.8701C106.325 84.1162 105.505 81.0986 105.505 77.8174L105.593 49.2969C105.593 45.957 106.428 42.9541 108.098 40.2881C109.738 37.5928 112.023 35.4395 114.953 33.8281C117.883 32.1875 121.237 31.3672 125.017 31.3672C128.884 31.3672 132.253 32.1729 135.124 33.7842C137.995 35.3955 140.251 37.5635 141.892 40.2881C143.562 42.9834 144.396 45.9863 144.396 49.2969L144.484 77.8174C144.484 81.0693 143.664 84.0723 142.023 86.8262C140.354 89.5801 138.054 91.7773 135.124 93.418C132.224 95.0586 128.854 95.8789 125.017 95.8789ZM133.586 77.8174L133.498 49.2969C133.498 47.1875 132.707 45.4736 131.125 44.1553C129.572 42.8369 127.536 42.1777 125.017 42.1777C122.438 42.1777 120.373 42.8369 118.82 44.1553C117.268 45.4736 116.491 47.1875 116.491 49.2969V77.8174C116.491 80.0439 117.268 81.8018 118.82 83.0908C120.373 84.3799 122.438 85.0244 125.017 85.0244C127.536 85.0244 129.587 84.3799 131.169 83.0908C132.78 81.8018 133.586 80.0439 133.586 77.8174ZM161.931 95H151.735C151.442 95 151.296 94.8535 151.296 94.5605L151.384 32.7295C151.384 32.4951 151.501 32.3779 151.735 32.3779H161.843C162.077 32.3779 162.194 32.4951 162.194 32.7295L162.282 94.5605C162.282 94.8535 162.165 95 161.931 95Z" fill="#B42D2D"/>
<path d="M117.194 166H106.999C106.706 166 106.56 165.854 106.56 165.561L106.647 103.729C106.647 103.495 106.765 103.378 106.999 103.378H117.106C117.341 103.378 117.458 103.495 117.458 103.729L117.546 165.561C117.546 165.854 117.429 166 117.194 166ZM143.913 166.879C140.104 166.879 136.721 166.059 133.762 164.418C130.832 162.777 128.532 160.595 126.862 157.87C125.222 155.116 124.401 152.099 124.401 148.817L124.489 120.297C124.489 116.957 125.324 113.954 126.994 111.288C128.635 108.593 130.92 106.439 133.85 104.828C136.779 103.188 140.134 102.367 143.913 102.367C147.78 102.367 151.149 103.173 154.021 104.784C156.892 106.396 159.147 108.563 160.788 111.288C162.458 113.983 163.293 116.986 163.293 120.297L163.381 148.817C163.381 152.069 162.561 155.072 160.92 157.826C159.25 160.58 156.95 162.777 154.021 164.418C151.12 166.059 147.751 166.879 143.913 166.879ZM152.482 148.817L152.395 120.297C152.395 118.188 151.604 116.474 150.021 115.155C148.469 113.837 146.433 113.178 143.913 113.178C141.335 113.178 139.27 113.837 137.717 115.155C136.164 116.474 135.388 118.188 135.388 120.297V148.817C135.388 151.044 136.164 152.802 137.717 154.091C139.27 155.38 141.335 156.024 143.913 156.024C146.433 156.024 148.483 155.38 150.065 154.091C151.677 152.802 152.482 151.044 152.482 148.817Z" fill="#B42D2D"/>
<path fill-rule="evenodd" clip-rule="evenodd" d="M200 2C200 0.895431 199.105 0 198 0H2C0.895431 0 0 0.895429 0 2V198C0 199.105 0.895429 200 2 200H198C199.105 200 200 199.105 200 198V2ZM186 16C186 14.8954 185.105 14 184 14H16C14.8954 14 14 14.8954 14 16V184C14 185.105 14.8954 186 16 186H184C185.105 186 186 185.105 186 184V16Z" fill="#B42D2D"/>
</svg>
